<?xml version="1.0" encoding="UTF-8" standalone="no"?>
<!-- Created with Inkscape (http://www.inkscape.org/) -->

<svg
   xmlns:dc="http://purl.org/dc/elements/1.1/"
   xmlns:cc="http://creativecommons.org/ns#"
   xmlns:rdf="http://www.w3.org/1999/02/22-rdf-syntax-ns#"
   xmlns:svg="http://www.w3.org/2000/svg"
   xmlns="http://www.w3.org/2000/svg"
   xmlns:sodipodi="http://sodipodi.sourceforge.net/DTD/sodipodi-0.dtd"
   xmlns:inkscape="http://www.inkscape.org/namespaces/inkscape"
   width="32"
   height="32"
   id="svg4152"
   version="1.1"
   inkscape:version="0.91 r13725"
   viewBox="0 0 32 32"
   sodipodi:docname="reset.svg">
  <defs
     id="defs4154" />
  <sodipodi:namedview
     id="base"
     pagecolor="#ffffff"
     bordercolor="#666666"
     borderopacity="1.0"
     inkscape:pageopacity="0.0"
     inkscape:pageshadow="2"
     inkscape:zoom="8"
     inkscape:cx="1.014566"
     inkscape:cy="8.3752563"
     inkscape:current-layer="svg4152"
     showgrid="true"
     inkscape:grid-bbox="true"
     inkscape:document-units="px"
     inkscape:window-width="1600"
     inkscape:window-height="827"
     inkscape:window-x="0"
     inkscape:window-y="27"
     inkscape:window-maximized="1" />
  <metadata
     id="metadata4157">
    <rdf:RDF>
      <cc:Work
         rdf:about="">
        <dc:format>image/svg+xml</dc:format>
        <dc:type
           rdf:resource="http://purl.org/dc/dcmitype/StillImage" />
      </cc:Work>
    </rdf:RDF>
  </metadata>
  <g
     id="layer1"
     inkscape:label="Layer 1"
     inkscape:groupmode="layer" />
  <path
     style="opacity:1;fill:#f0f0f0;fill-opacity:1;stroke:none;stroke-width:0.1;stroke-linejoin:miter;stroke-miterlimit:4;stroke-dasharray:none;stroke-dashoffset:0;stroke-opacity:1"
     d="m 18.143061,0.0141339 c -0.642822,-0.37094597 -8.5709602,6.6765236 -8.5709602,7.4184153 0,0.741892 7.9281382,7.7893628 8.5709602,7.4184158 0.20584,-0.118781 0.338213,-1.703215 0.412227,-3.735352 a 6.4282205,6.424971 0 0 1 3.873254,5.891649 6.4282205,6.424971 0 0 1 -6.428221,6.42497 6.4282205,6.424971 0 0 1 -6.4282202,-6.42497 6.4282205,6.424971 0 0 1 0.8663032,-3.210395 L 3.0099591,9.5114631 A 14.999182,14.9916 0 0 0 5.3933391,27.608884 14.999182,14.9916 0 0 0 23.499911,29.991057 14.999182,14.9916 0 0 0 30.488928,13.127599 14.999182,14.9916 0 0 0 18.488327,2.2415407 C 18.408239,0.98899519 18.294544,0.10154784 18.143061,0.0141339 Z"
     id="path4708"
     inkscape:connector-curvature="0" />
  <g
     inkscape:groupmode="layer"
     id="layer3"
     inkscape:label="Layer 2" />
</svg>
