<?xml version="1.0" encoding="UTF-8" standalone="no"?>
<svg
   xmlns:dc="http://purl.org/dc/elements/1.1/"
   xmlns:cc="http://creativecommons.org/ns#"
   xmlns:rdf="http://www.w3.org/1999/02/22-rdf-syntax-ns#"
   xmlns:svg="http://www.w3.org/2000/svg"
   xmlns="http://www.w3.org/2000/svg"
   viewBox="0 0 32 32"
   version="1.1"
   id="svg4152"
   height="32"
   width="32">
  <defs
     id="defs4154" />
  <metadata
     id="metadata4157">
    <rdf:RDF>
      <cc:Work
         rdf:about="">
        <dc:format>image/svg+xml</dc:format>
        <dc:type
           rdf:resource="http://purl.org/dc/dcmitype/StillImage" />
        <dc:title></dc:title>
      </cc:Work>
    </rdf:RDF>
  </metadata>
  <g
     id="layer1">
    <path
       id="path4721"
       d="M 18.464614,0.06241937 14.279526,2.6397823 18.464614,5.2171452 18.332031,4.0410156 c 4.968692,0.9682729 8.821525,4.907398 9.679688,9.8964844 1.008244,5.87244 -2.377109,11.613 -8.003907,13.572266 C 14.380714,29.469568 8.1616398,27.072977 5.3046875,21.84375 2.4483819,16.61455 3.7916306,10.086659 8.4804688,6.4101562 L 6.7441406,4.1953125 C 0.97258973,8.7212359 -0.67973169,16.757301 2.8378906,23.193359 6.3543987,29.628768 14.00829,32.577974 20.933594,30.166016 27.858666,27.754052 32.024676,20.688439 30.783203,13.460938 29.687187,7.129082 24.679885,2.1987555 18.332031,1.2011719 Z"
       style="opacity:1;fill:#f0f0f0;fill-opacity:1;stroke:none;stroke-width:1.5;stroke-linejoin:miter;stroke-miterlimit:4;stroke-dasharray:none;stroke-dashoffset:0;stroke-opacity:1" />
  </g>
</svg>
